<?xml version="1.0" encoding="UTF-8"?>
<svg id="Layer_3" data-name="Layer 3" xmlns="http://www.w3.org/2000/svg" viewBox="0 0 1000 1000">
  <defs>
    <style>
      .cls-1 {
        fill: #e5989b;
      }

      .cls-1, .cls-2 {
        stroke-width: 0px;
      }

      .cls-2 {
        fill: #ab8e76;
      }
    </style>
  </defs>
  <path class="cls-2" d="M502.87,317.6v-32.16c0-46.64-37.12-84.44-82.92-84.44h-137.6c-42.77,0-52.32,33-53.85,75.51-.3,8.41-.96,16.79-1.66,25.18l-33.96,405.97c-.7,45.35,33.9,83.16,78.36,85.65h0c47.53,2.66,87.49-35.88,87.46-84.35l-.05-98.55c0-7.15,5.25-13.18,12.22-14.02l122.01-14.79c5.86-.71,9.02-7.24,5.95-12.28l-55.91-91.59c-10.82-17.72-27.68-30.73-47.37-36.52-31.67-9.32-78.08-28.13-82.52-59.15-6.8-47.49,34.83-53.81,62.93-50.65,28.1,3.16,14.69,9.52,37.12-20.35,19.18-25.54,69.33-13.56,85.06,8.21,1.47,2.03,4.71.87,4.71-1.64Z"/>
  <path class="cls-1" d="M504.45,682.4v32.16c0,46.64,37.12,84.44,82.92,84.44h137.6c45.29,0,82.19-37,82.91-83.11l-21.11-400.82c-.66-12.5-.92-25.01-1.25-37.52-1-38.51-9.92-68.64-49.45-70.85h0c-37.62-2.1-75.62,10.54-93.67,48.72-7.97,16.84-9.69,35.98-6.72,54.37l12.97,80.39c0,6.9-4.9,12.79-11.58,13.93l-122.95,20.87c-5.77.98-8.63,7.55-5.43,12.44l58.5,89.37c11.22,17.13,28.18,29.45,47.72,34.77,30.62,8.33,74.95,25.6,79.36,56.4,6.8,47.49-34.83,53.81-62.93,50.65-28.1-3.16-14.69-9.52-37.12,20.35-19.18,25.54-69.33,13.56-85.06-8.21-1.47-2.03-4.71-.87-4.71,1.64Z"/>
</svg>