<?xml version="1.0" encoding="UTF-8"?>
<svg id="Layer_3" data-name="Layer 3" xmlns="http://www.w3.org/2000/svg" viewBox="0 0 988 1000">
  <defs>
    <style>
      .cls-1 {
        fill: #e5989b;
      }

      .cls-1, .cls-2 {
        stroke-width: 0px;
      }

      .cls-2 {
        fill: #ab8e76;
      }
    </style>
  </defs>
  <g>
    <path class="cls-2" d="M562.55,359.6c0,4.96-4.29,9.12-9.61,9.12-1.43-14.87-14.31-26.18-29.84-26.18h-28c-4.7,0-8.38,3.57-8.38,8.13v62.67h22.28c11.45,0,20.64-8.92,20.64-20.23,5.93,0,10.63,4.76,10.63,10.31v30.14c0,5.55-4.7,10.11-10.63,10.11,0-11.11-9.2-20.03-20.64-20.03h-22.28v62.67c0,4.56,3.68,8.13,8.38,8.13,0,5.75-4.7,10.31-10.63,10.31h-30.86c-5.93,0-10.63-4.56-10.63-10.31,4.7,0,8.38-3.57,8.38-8.13v-135.65c0-4.56-3.68-8.13-8.38-8.13,0-5.75,4.7-10.31,10.63-10.31h100.16c3.48,0,6.54,2.58,6.95,6.15l1.84,20.23v.99Z"/>
    <path class="cls-2" d="M616.71,350.67v135.65c0,4.56,3.88,8.13,8.59,8.13,0,5.75-4.91,10.31-10.63,10.31h-31.07c-5.72,0-10.42-4.56-10.42-10.31,4.5,0,8.38-3.57,8.38-8.13v-135.65c0-4.56-3.88-8.13-8.38-8.13,0-5.75,4.7-10.31,10.42-10.31h31.07c5.72,0,10.63,4.56,10.63,10.31-4.7,0-8.59,3.57-8.59,8.13Z"/>
    <path class="cls-2" d="M706.44,332.23c50.28,0,73.79,38.67,73.79,86.27s-23.51,86.27-73.79,86.27h-54.37c-5.72,0-10.42-4.56-10.42-10.31,4.5,0,8.38-3.57,8.38-8.13v-135.65c0-4.56-3.88-8.13-8.38-8.13,0-5.75,4.7-10.31,10.42-10.31h54.37ZM706.44,494.45c25.75,0,38.02-33.91,38.02-75.95s-12.26-75.96-38.02-75.96h-12.67c-4.7,0-8.59,3.57-8.59,8.13v135.65c0,4.56,3.88,8.13,8.59,8.13h12.67Z"/>
    <path class="cls-2" d="M953.77,418.5c0,47.6-23.51,86.66-73.79,86.66s-73.79-39.07-73.79-86.66,23.71-86.66,73.79-86.66,73.79,39.07,73.79,86.66ZM918,418.5c0-42.04-12.26-76.35-38.02-76.35s-37.81,34.31-37.81,76.35,12.26,76.35,37.81,76.35,38.02-34.31,38.02-76.35Z"/>
  </g>
  <g>
    <path class="cls-1" d="M542.72,563.14c0,4.15-3.59,7.64-8.04,7.64-1.2-12.45-11.98-21.92-24.99-21.92h-23.45c-3.94,0-7.02,2.99-7.02,6.81v52.47h18.65c9.58,0,17.29-7.47,17.29-16.94,4.96,0,8.9,3.99,8.9,8.63v25.24c0,4.65-3.94,8.47-8.9,8.47,0-9.3-7.7-16.77-17.29-16.77h-18.65v52.47c0,3.82,3.08,6.81,7.02,6.81,0,4.82-3.94,8.63-8.9,8.63h-25.84c-4.96,0-8.9-3.82-8.9-8.63,3.94,0,7.02-2.99,7.02-6.81v-113.58c0-3.82-3.08-6.81-7.02-6.81,0-4.82,3.94-8.63,8.9-8.63h83.86c2.91,0,5.48,2.16,5.82,5.15l1.54,16.94v.83Z"/>
    <path class="cls-1" d="M652.94,661.78v.83l-1.54,16.94c-.34,2.82-2.91,5.15-5.82,5.15h-85.23c-4.79,0-8.73-3.82-8.73-8.63,3.77,0,7.02-2.99,7.02-6.81v-113.58c0-3.82-3.25-6.81-7.02-6.81,0-4.82,3.94-8.63,8.73-8.63h26.01c4.79,0,8.9,3.82,8.9,8.63-3.94,0-7.19,2.99-7.19,6.81v113.58c0,3.82,3.25,6.81,7.19,6.81h24.64c13.01,0,23.79-9.46,24.99-21.92,4.45,0,8.04,3.32,8.04,7.64Z"/>
    <path class="cls-1" d="M769.83,669.58c1.2,3.82,4.79,6.48,8.9,6.48,0,4.82-3.94,8.63-8.9,8.63h-27.73c-4.96,0-8.9-3.82-8.9-8.63,3.59,0,6.16-2.66,6.16-5.98,0-.5,0-1.16-.17-1.66l-7.7-28.89h-43.13l-8.73,30.06c-.17.5-.17,1-.17,1.49,0,2.66,2.22,4.98,5.13,4.98,0,4.82-3.94,8.63-8.73,8.63h-5.65c-4.79,0-8.9-3.82-8.9-8.63,4.28,0,7.87-2.66,9.07-6.48l33.03-114.08c.17-.5.17-.83.17-1.33,0-2.82-2.4-5.31-5.48-5.31,0-4.82,3.94-8.63,8.9-8.63h28.41c4.96,0,8.9,3.82,8.9,8.63-2.57,0-4.79,2.16-4.79,4.48,0,.33,0,.83.17,1.16l30.12,115.07ZM729.26,630.89l-18.48-68.75-20.02,68.75h38.51Z"/>
    <path class="cls-1" d="M823.22,555.67v113.58c0,3.82,3.25,6.81,7.19,6.81,0,4.82-4.11,8.63-8.9,8.63h-26.01c-4.79,0-8.73-3.82-8.73-8.63,3.77,0,7.02-2.99,7.02-6.81v-113.58c0-3.82-3.25-6.81-7.02-6.81,0-4.82,3.94-8.63,8.73-8.63h26.01c4.79,0,8.9,3.82,8.9,8.63-3.94,0-7.19,2.99-7.19,6.81Z"/>
    <path class="cls-1" d="M955,661.94c0,.66-.17,1.16-.34,1.83-3.94,15.11-13.86,20.92-24.3,20.92-37.65,0-27.9-62.27-49.63-62.27v46.83c0,3.82,3.08,6.81,7.02,6.81,0,4.82-3.94,8.63-8.9,8.63h-25.84c-4.96,0-8.9-3.82-8.9-8.63,3.94,0,7.02-2.99,7.02-6.81v-113.58c0-3.82-3.08-6.81-7.02-6.81,0-4.82,3.94-8.63,8.9-8.63h52.88c31.32,0,45.35,18.43,45.35,41.18s-17.46,40.35-43.99,41.01c16.77,13.62,18.14,38.69,34.74,38.69,5.13,0,8.73-3.32,9.75-4.98,2.05,1.33,3.25,3.49,3.25,5.81ZM880.72,613.95h7.53c22.42,0,33.54-14.61,33.54-32.55s-11.13-32.55-33.54-32.55h-.51c-3.94,0-7.02,2.99-7.02,6.81v58.28Z"/>
  </g>
  <path class="cls-2" d="M221.87,391.92v-19.56c0-28.37-22.58-51.36-50.44-51.36h-83.7c-26.01,0-31.82,20.07-32.75,45.93-.18,5.11-.58,10.22-1.01,15.31l-20.65,246.93c-.43,27.58,20.62,50.58,47.66,52.09h0c28.91,1.62,53.21-21.83,53.2-51.31l-.03-59.94c0-4.35,3.19-8.01,7.43-8.53l74.21-9c3.56-.43,5.49-4.41,3.62-7.47l-34-55.71c-6.58-10.78-16.83-18.69-28.81-22.22-19.26-5.67-47.49-17.11-50.2-35.98-4.13-28.89,21.18-32.73,38.28-30.81,17.09,1.92,8.94,5.79,22.58-12.38,11.66-15.53,42.17-8.25,51.74,4.99.89,1.24,2.87.53,2.87-1Z"/>
  <path class="cls-1" d="M222.83,613.81v19.56c0,28.37,22.58,51.36,50.44,51.36h83.7c27.54,0,49.99-22.5,50.43-50.55l-12.84-243.8c-.4-7.6-.56-15.21-.76-22.82-.61-23.43-6.04-41.75-30.08-43.09h0c-22.89-1.28-45.99,6.41-56.98,29.63-4.84,10.25-5.89,21.88-4.09,33.07l7.89,48.9c0,4.2-2.98,7.78-7.04,8.47l-74.78,12.69c-3.51.6-5.25,4.59-3.3,7.57l35.58,54.36c6.82,10.42,17.14,17.91,29.02,21.15,18.62,5.07,45.59,15.57,48.27,34.31,4.13,28.89-21.18,32.73-38.28,30.81-17.09-1.92-8.94-5.79-22.58,12.38-11.66,15.53-42.17,8.25-51.74-4.99-.89-1.24-2.87-.53-2.87,1Z"/>
</svg>