<?xml version="1.0" encoding="UTF-8"?>
<svg xmlns="http://www.w3.org/2000/svg" viewBox="0 0 988 1000">
  <defs>
    <style>
      .cls-1 {
        fill: #e5989b;
      }

      .cls-1, .cls-2 {
        stroke-width: 0px;
      }

      .cls-2 {
        fill: #ab8e76;
      }
    </style>
  </defs>
  <g id="Layer_2" data-name="Layer 2">
    <g>
      <path class="cls-2" d="M553.24,409.94c0,3.2-2.77,5.89-6.21,5.89-.92-9.61-9.24-16.91-19.28-16.91h-18.09c-3.04,0-5.41,2.31-5.41,5.25v40.49h14.39c7.4,0,13.34-5.77,13.34-13.07,3.83,0,6.87,3.07,6.87,6.66v19.48c0,3.59-3.04,6.53-6.87,6.53,0-7.18-5.94-12.94-13.34-12.94h-14.39v40.49c0,2.95,2.38,5.25,5.41,5.25,0,3.72-3.04,6.66-6.87,6.66h-19.94c-3.83,0-6.87-2.95-6.87-6.66,3.04,0,5.41-2.31,5.41-5.25v-87.64c0-2.95-2.38-5.25-5.41-5.25,0-3.72,3.04-6.66,6.87-6.66h64.71c2.25,0,4.23,1.67,4.49,3.97l1.19,13.07v.64Z"/>
      <path class="cls-2" d="M588.24,404.17v87.64c0,2.95,2.51,5.25,5.55,5.25,0,3.72-3.17,6.66-6.87,6.66h-20.07c-3.7,0-6.73-2.95-6.73-6.66,2.91,0,5.41-2.31,5.41-5.25v-87.64c0-2.95-2.51-5.25-5.41-5.25,0-3.72,3.04-6.66,6.73-6.66h20.07c3.7,0,6.87,2.95,6.87,6.66-3.04,0-5.55,2.31-5.55,5.25Z"/>
      <path class="cls-2" d="M646.21,392.26c32.49,0,47.67,24.99,47.67,55.74s-15.19,55.74-47.67,55.74h-35.13c-3.7,0-6.73-2.95-6.73-6.66,2.91,0,5.41-2.31,5.41-5.25v-87.64c0-2.95-2.51-5.25-5.41-5.25,0-3.72,3.04-6.66,6.73-6.66h35.13ZM646.21,497.06c16.64,0,24.56-21.91,24.56-49.07s-7.92-49.07-24.56-49.07h-8.19c-3.04,0-5.55,2.31-5.55,5.25v87.64c0,2.95,2.51,5.25,5.55,5.25h8.19Z"/>
      <path class="cls-2" d="M806,447.99c0,30.75-15.19,55.99-47.67,55.99s-47.67-25.24-47.67-55.99,15.32-55.99,47.67-55.99,47.67,25.24,47.67,55.99ZM782.89,447.99c0-27.16-7.92-49.33-24.56-49.33s-24.43,22.17-24.43,49.33,7.92,49.33,24.43,49.33,24.56-22.17,24.56-49.33Z"/>
    </g>
    <g>
      <path class="cls-1" d="M540.43,541.44c0,2.68-2.32,4.93-5.2,4.93-.77-8.05-7.74-14.16-16.14-14.16h-15.15c-2.54,0-4.53,1.93-4.53,4.4v33.9h12.05c6.19,0,11.17-4.83,11.17-10.94,3.21,0,5.75,2.57,5.75,5.58v16.31c0,3-2.54,5.47-5.75,5.47,0-6.01-4.98-10.84-11.17-10.84h-12.05v33.9c0,2.47,1.99,4.4,4.53,4.4,0,3.11-2.54,5.58-5.75,5.58h-16.7c-3.21,0-5.75-2.47-5.75-5.58,2.54,0,4.53-1.93,4.53-4.4v-73.38c0-2.47-1.99-4.4-4.53-4.4,0-3.11,2.54-5.58,5.75-5.58h54.18c1.88,0,3.54,1.39,3.76,3.33l1,10.94v.54Z"/>
      <path class="cls-1" d="M611.64,605.17v.54l-1,10.94c-.22,1.82-1.88,3.33-3.76,3.33h-55.07c-3.1,0-5.64-2.47-5.64-5.58,2.43,0,4.53-1.93,4.53-4.4v-73.38c0-2.47-2.1-4.4-4.53-4.4,0-3.11,2.54-5.58,5.64-5.58h16.81c3.1,0,5.75,2.47,5.75,5.58-2.54,0-4.64,1.93-4.64,4.4v73.38c0,2.47,2.1,4.4,4.64,4.4h15.92c8.4,0,15.37-6.12,16.14-14.16,2.87,0,5.2,2.15,5.2,4.93Z"/>
      <path class="cls-1" d="M687.16,610.21c.77,2.47,3.1,4.18,5.75,4.18,0,3.11-2.54,5.58-5.75,5.58h-17.91c-3.21,0-5.75-2.47-5.75-5.58,2.32,0,3.98-1.72,3.98-3.86,0-.32,0-.75-.11-1.07l-4.98-18.67h-27.86l-5.64,19.42c-.11.32-.11.64-.11.97,0,1.72,1.44,3.22,3.32,3.22,0,3.11-2.54,5.58-5.64,5.58h-3.65c-3.1,0-5.75-2.47-5.75-5.58,2.76,0,5.09-1.72,5.86-4.18l21.34-73.7c.11-.32.11-.54.11-.86,0-1.82-1.55-3.43-3.54-3.43,0-3.11,2.54-5.58,5.75-5.58h18.36c3.21,0,5.75,2.47,5.75,5.58-1.66,0-3.1,1.39-3.1,2.9,0,.21,0,.54.11.75l19.46,74.35ZM660.95,585.21l-11.94-44.41-12.94,44.41h24.88Z"/>
      <path class="cls-1" d="M721.66,536.62v73.38c0,2.47,2.1,4.4,4.64,4.4,0,3.11-2.65,5.58-5.75,5.58h-16.81c-3.1,0-5.64-2.47-5.64-5.58,2.43,0,4.53-1.93,4.53-4.4v-73.38c0-2.47-2.1-4.4-4.53-4.4,0-3.11,2.54-5.58,5.64-5.58h16.81c3.1,0,5.75,2.47,5.75,5.58-2.54,0-4.64,1.93-4.64,4.4Z"/>
      <path class="cls-1" d="M806.8,605.28c0,.43-.11.75-.22,1.18-2.54,9.76-8.96,13.52-15.7,13.52-24.33,0-18.02-40.23-32.07-40.23v30.25c0,2.47,1.99,4.4,4.53,4.4,0,3.11-2.54,5.58-5.75,5.58h-16.7c-3.21,0-5.75-2.47-5.75-5.58,2.54,0,4.53-1.93,4.53-4.4v-73.38c0-2.47-1.99-4.4-4.53-4.4,0-3.11,2.54-5.58,5.75-5.58h34.17c20.24,0,29.3,11.91,29.3,26.61s-11.28,26.07-28.42,26.5c10.84,8.8,11.72,25,22.45,25,3.32,0,5.64-2.15,6.3-3.22,1.33.86,2.1,2.25,2.1,3.75ZM758.81,574.27h4.87c14.48,0,21.67-9.44,21.67-21.03s-7.19-21.03-21.67-21.03h-.33c-2.54,0-4.53,1.93-4.53,4.4v37.66Z"/>
    </g>
  </g>
  <g id="Layer_3" data-name="Layer 3">
    <path class="cls-2" d="M333.14,430.82v-12.64c0-18.33-14.59-33.18-32.59-33.18h-54.07c-16.81,0-20.56,12.97-21.16,29.67-.12,3.3-.38,6.6-.65,9.89l-13.34,159.54c-.28,17.82,13.32,32.68,30.79,33.66h0c18.68,1.04,34.38-14.1,34.37-33.15l-.02-38.73c0-2.81,2.06-5.18,4.8-5.51l47.95-5.81c2.3-.28,3.55-2.85,2.34-4.83l-21.97-35.99c-4.25-6.96-10.88-12.08-18.61-14.35-12.44-3.66-30.69-11.05-32.43-23.24-2.67-18.66,13.69-21.15,24.73-19.91,11.04,1.24,5.77,3.74,14.59-8,7.54-10.04,27.25-5.33,33.43,3.23.58.8,1.85.34,1.85-.65Z"/>
    <path class="cls-1" d="M333.76,574.18v12.64c0,18.33,14.59,33.18,32.59,33.18h54.07c17.8,0,32.3-14.54,32.58-32.66l-8.3-157.51c-.26-4.91-.36-9.83-.49-14.74-.39-15.14-3.9-26.97-19.43-27.84h0c-14.79-.83-29.72,4.14-36.81,19.14-3.13,6.62-3.81,14.14-2.64,21.37l5.1,31.59c0,2.71-1.92,5.03-4.55,5.47l-48.32,8.2c-2.27.38-3.39,2.97-2.13,4.89l22.99,35.12c4.41,6.73,11.08,11.57,18.75,13.66,12.03,3.27,29.45,10.06,31.18,22.17,2.67,18.66-13.69,21.15-24.73,19.91-11.04-1.24-5.77-3.74-14.59,8-7.54,10.04-27.25,5.33-33.43-3.23-.58-.8-1.85-.34-1.85.64Z"/>
  </g>
</svg>